<?xml version="1.0" encoding="UTF-8" standalone="no"?>
<svg
   viewBox="0 0 512 512"
   style="width:26px; top:-5px;"
   class="checkdesktop"
   version="1.1"
   id="svg4"
   sodipodi:docname="checked.svg"
   inkscape:version="1.2.2 (b0a8486541, 2022-12-01)"
   xmlns:inkscape="http://www.inkscape.org/namespaces/inkscape"
   xmlns:sodipodi="http://sodipodi.sourceforge.net/DTD/sodipodi-0.dtd"
   xmlns="http://www.w3.org/2000/svg"
   xmlns:svg="http://www.w3.org/2000/svg">
  <defs
     id="defs8" />
  <sodipodi:namedview
     id="namedview6"
     pagecolor="#ffffff"
     bordercolor="#666666"
     borderopacity="1.0"
     inkscape:showpageshadow="2"
     inkscape:pageopacity="0.0"
     inkscape:pagecheckerboard="0"
     inkscape:deskcolor="#d1d1d1"
     showgrid="false"
     inkscape:zoom="1.3867188"
     inkscape:cx="255.63944"
     inkscape:cy="256"
     inkscape:window-width="1444"
     inkscape:window-height="870"
     inkscape:window-x="50"
     inkscape:window-y="30"
     inkscape:window-maximized="1"
     inkscape:current-layer="svg4" />
  <path
     fill="currentcolor"
     d="M 0,256 C 0,114.6 114.6,0 256,0 397.4,0 512,114.6 512,256 512,397.4 397.4,512 256,512 114.6,512 0,397.4 0,256 Z m 371.8,-44.2 c 10.9,-10.9 10.9,-28.7 0,-39.6 -10.9,-10.9 -28.7,-10.9 -39.6,0 L 224,280.4 179.8,236.2 c -10.9,-10.9 -28.7,-10.9 -39.6,0 -10.9,10.9 -10.9,28.7 0,39.6 l 64,64 c 10.9,10.9 28.7,10.9 39.6,0 z"
     id="path2" />
</svg>
