<?xml version="1.0" encoding="UTF-8" standalone="no"?>
<svg
   viewBox="0 0 512 512"
   version="1.1"
   id="svg4"
   sodipodi:docname="desktops.svg"
   width="512"
   height="512"
   inkscape:version="1.2.2 (b0a8486541, 2022-12-01)"
   xmlns:inkscape="http://www.inkscape.org/namespaces/inkscape"
   xmlns:sodipodi="http://sodipodi.sourceforge.net/DTD/sodipodi-0.dtd"
   xmlns="http://www.w3.org/2000/svg"
   xmlns:svg="http://www.w3.org/2000/svg">
  <defs
     id="defs8" />
  <sodipodi:namedview
     id="namedview6"
     pagecolor="#ffffff"
     bordercolor="#666666"
     borderopacity="1.0"
     inkscape:showpageshadow="2"
     inkscape:pageopacity="0.0"
     inkscape:pagecheckerboard="0"
     inkscape:deskcolor="#d1d1d1"
     showgrid="false"
     inkscape:zoom="0.98055823"
     inkscape:cx="553.25628"
     inkscape:cy="264.13526"
     inkscape:window-width="1444"
     inkscape:window-height="870"
     inkscape:window-x="50"
     inkscape:window-y="30"
     inkscape:window-maximized="1"
     inkscape:current-layer="svg4" />
  <path
     d="M 469.33333,28.432862 H 42.666666 C 19.111111,28.432862 0,47.544945 0,71.1017 v 284.45893 c 0,23.55675 19.111111,42.66883 42.666666,42.66883 H 213.33333 l -14.22222,42.66884 h -64 c -11.82223,0 -21.33333,9.5116 -21.33333,21.33442 0,11.82282 9.5111,21.33442 21.33333,21.33442 h 241.77778 c 11.82222,0 21.33333,-9.5116 21.33333,-21.33442 0,-11.82282 -9.51111,-21.33442 -21.33333,-21.33442 H 312.88888 L 298.66667,398.22946 H 469.33333 C 492.88888,398.22946 512,379.11738 512,355.56063 V 71.1017 C 512,47.544945 492.88888,28.432862 469.33333,28.432862 Z M 455.11111,341.33768 H 56.888888 V 85.324644 H 455.11111 Z"
     id="path2"
     style="stroke-width:0.888911" />
</svg>
